<?xml version="1.0" encoding="utf-8"?>
<!-- Generator: Adobe Illustrator 17.0.0, SVG Export Plug-In . SVG Version: 6.00 Build 0)  -->
<!DOCTYPE svg PUBLIC "-//W3C//DTD SVG 1.1//EN" "http://www.w3.org/Graphics/SVG/1.1/DTD/svg11.dtd">
<svg version="1.1" id="Layer_1" xmlns="http://www.w3.org/2000/svg" xmlns:xlink="http://www.w3.org/1999/xlink" x="0px" y="0px"
	 width="705.217px" height="517.021px" viewBox="0 0 705.217 517.021" enable-background="new 0 0 705.217 517.021"
	 xml:space="preserve">
<ellipse transform="matrix(0.9533 -0.302 0.302 0.9533 -68.9053 118.1231)" fill="#EE3E33" cx="347.613" cy="281.933" rx="274.41" ry="171.327"/>
<g>
	<path fill="#FFFFFF" d="M112.759,254.897l34.151-9.215c6.731-1.816,12.416-2.37,17.054-1.662c4.636,0.709,8.769,2.407,12.398,5.093
		c3.628,2.687,6.663,6.132,9.104,10.336c2.441,4.206,4.346,8.844,5.715,13.918c2.145,7.95,2.903,14.36,2.276,19.229
		c-0.628,4.87-2.149,9.218-4.564,13.044c-2.416,3.828-5.334,6.73-8.757,8.705c-4.676,2.714-9.061,4.622-13.153,5.727l-34.151,9.215
		L112.759,254.897z M140.291,265.542l10.967,40.646l5.633-1.52c4.803-1.296,8.077-2.751,9.819-4.365
		c1.742-1.613,2.83-3.902,3.264-6.869c0.433-2.965-0.153-7.425-1.759-13.379c-2.127-7.883-4.869-12.93-8.224-15.147
		c-3.356-2.215-8.011-2.52-13.965-0.914L140.291,265.542z"/>
	<path fill="#FFFFFF" d="M234.944,221.929l22.936-6.189l11.959,44.321c1.186,4.395,1.621,8.729,1.304,13.003
		c-0.316,4.275-1.543,8.27-3.68,11.983c-2.138,3.714-4.653,6.596-7.548,8.646c-4.019,2.861-9.157,5.137-15.415,6.825
		c-3.62,0.977-7.638,1.788-12.054,2.436c-4.417,0.647-8.266,0.608-11.547-0.121c-3.282-0.729-6.488-2.157-9.622-4.286
		c-3.132-2.129-5.536-4.545-7.209-7.249c-2.698-4.349-4.539-8.35-5.524-12.001l-11.959-44.321l22.936-6.189l12.244,45.376
		c1.094,4.056,3.074,6.922,5.939,8.596c2.865,1.675,6.294,1.973,10.286,0.896c3.958-1.068,6.758-3.029,8.402-5.884
		c1.643-2.855,1.909-6.344,0.796-10.468L234.944,221.929z"/>
	<path fill="#FFFFFF" d="M263.8,214.142l43.031-11.611c7.172-1.935,13.157-1.644,17.956,0.872c4.797,2.516,7.904,6.396,9.319,11.639
		c1.187,4.398,0.834,8.539-1.057,12.424c-1.261,2.592-3.487,4.969-6.677,7.136c5.692-0.156,10.22,0.99,13.585,3.439
		c3.364,2.45,5.686,6.042,6.964,10.778c1.041,3.857,1.08,7.567,0.118,11.128c-0.963,3.563-2.759,6.661-5.387,9.293
		c-1.627,1.637-4.318,3.234-8.071,4.791c-4.993,2.074-8.336,3.338-10.027,3.794l-39.683,10.707L263.8,214.142z M294.863,237.063
		l9.997-2.698c3.585-0.967,5.914-2.258,6.985-3.872c1.07-1.613,1.291-3.587,0.661-5.921c-0.584-2.165-1.743-3.667-3.475-4.506
		c-1.733-0.839-4.342-0.788-7.826,0.152l-10.149,2.738L294.863,237.063z M302.75,266.292l11.722-3.163
		c3.959-1.068,6.56-2.523,7.805-4.366c1.245-1.841,1.548-3.946,0.909-6.315c-0.593-2.198-1.874-3.749-3.841-4.653
		c-1.967-0.902-4.965-0.81-8.99,0.276l-11.672,3.149L302.75,266.292z"/>
	<path fill="#FFFFFF" d="M336.841,194.434l43.031-11.611c7.172-1.935,13.157-1.644,17.956,0.872
		c4.797,2.516,7.904,6.396,9.319,11.639c1.187,4.398,0.834,8.539-1.057,12.424c-1.261,2.592-3.487,4.969-6.677,7.136
		c5.692-0.156,10.22,0.99,13.585,3.439c3.364,2.45,5.686,6.042,6.964,10.778c1.041,3.857,1.08,7.567,0.118,11.128
		c-0.963,3.563-2.759,6.661-5.387,9.293c-1.627,1.637-4.318,3.234-8.071,4.791c-4.993,2.074-8.336,3.338-10.027,3.794
		l-39.683,10.707L336.841,194.434z M367.904,217.355l9.997-2.697c3.585-0.967,5.914-2.258,6.985-3.872
		c1.07-1.613,1.291-3.587,0.661-5.921c-0.584-2.165-1.743-3.667-3.475-4.506c-1.733-0.839-4.341-0.788-7.826,0.152l-10.149,2.738
		L367.904,217.355z M375.791,246.584l11.721-3.163c3.959-1.068,6.56-2.523,7.805-4.366c1.245-1.841,1.548-3.946,0.909-6.315
		c-0.593-2.198-1.874-3.749-3.841-4.653c-1.967-0.902-4.965-0.81-8.99,0.276l-11.671,3.149L375.791,246.584z"/>
	<path fill="#FFFFFF" d="M408.273,175.16l22.987-6.202l15.13,56.072l35.876-9.68l4.943,18.318l-58.863,15.883L408.273,175.16z"/>
	<path fill="#FFFFFF" d="M474.317,157.34l61.602-16.622l4.286,15.883l-38.565,10.406l3.19,11.823l35.775-9.653l4.094,15.173
		l-35.775,9.653l3.957,14.665l39.683-10.707l4.546,16.847l-62.719,16.923L474.317,157.34z"/>
	<path fill="#FFFFFF" d="M137.62,348.045l43.031-11.611c7.172-1.935,13.156-1.644,17.955,0.872
		c4.797,2.516,7.904,6.396,9.319,11.639c1.187,4.397,0.834,8.539-1.057,12.424c-1.261,2.591-3.486,4.969-6.676,7.136
		c5.692-0.155,10.22,0.991,13.585,3.439c3.364,2.449,5.686,6.042,6.964,10.778c1.041,3.857,1.08,7.567,0.117,11.128
		c-0.963,3.563-2.758,6.66-5.386,9.292c-1.627,1.637-4.318,3.234-8.071,4.791c-4.993,2.074-8.336,3.338-10.027,3.794l-39.682,10.707
		L137.62,348.045z M168.683,370.966l9.997-2.697c3.585-0.967,5.914-2.258,6.985-3.872c1.07-1.613,1.291-3.587,0.661-5.921
		c-0.584-2.165-1.743-3.667-3.475-4.506c-1.733-0.839-4.342-0.788-7.826,0.152l-10.149,2.738L168.683,370.966z M176.569,400.194
		l11.722-3.163c3.958-1.068,6.56-2.523,7.804-4.366c1.245-1.841,1.548-3.946,0.909-6.315c-0.593-2.198-1.874-3.749-3.841-4.653
		c-1.968-0.901-4.964-0.811-8.99,0.276l-11.671,3.149L176.569,400.194z"/>
	<path fill="#FFFFFF" d="M258.5,315.428l22.936-6.189l11.959,44.321c1.186,4.395,1.621,8.729,1.304,13.003
		c-0.316,4.275-1.543,8.27-3.68,11.983c-2.138,3.714-4.653,6.596-7.548,8.646c-4.018,2.861-9.157,5.137-15.415,6.825
		c-3.62,0.977-7.638,1.788-12.054,2.436c-4.417,0.647-8.266,0.608-11.547-0.121c-3.282-0.729-6.488-2.157-9.622-4.286
		c-3.132-2.129-5.536-4.545-7.209-7.249c-2.698-4.349-4.539-8.35-5.524-12.001l-11.959-44.321l22.936-6.189l12.244,45.376
		c1.094,4.056,3.074,6.922,5.939,8.596c2.865,1.675,6.294,1.973,10.286,0.896c3.958-1.068,6.758-3.029,8.402-5.884
		c1.643-2.855,1.909-6.344,0.796-10.468L258.5,315.428z"/>
	<path fill="#FFFFFF" d="M287.357,307.642l43.031-11.611c7.172-1.935,13.157-1.644,17.956,0.872
		c4.797,2.516,7.904,6.396,9.319,11.639c1.187,4.398,0.834,8.539-1.057,12.424c-1.261,2.591-3.487,4.969-6.677,7.136
		c5.693-0.156,10.22,0.99,13.585,3.439c3.364,2.45,5.686,6.042,6.964,10.778c1.041,3.857,1.08,7.567,0.118,11.128
		c-0.963,3.563-2.759,6.661-5.387,9.293c-1.627,1.637-4.318,3.234-8.071,4.791c-4.993,2.074-8.336,3.338-10.027,3.794
		l-39.683,10.707L287.357,307.642z M318.42,330.563l9.997-2.698c3.585-0.967,5.914-2.258,6.985-3.872
		c1.07-1.613,1.291-3.587,0.661-5.921c-0.584-2.165-1.743-3.667-3.475-4.506c-1.733-0.839-4.341-0.788-7.826,0.152l-10.149,2.738
		L318.42,330.563z M326.306,359.791l11.722-3.163c3.959-1.068,6.56-2.523,7.805-4.366c1.245-1.841,1.548-3.946,0.909-6.315
		c-0.593-2.198-1.874-3.749-3.841-4.653c-1.967-0.902-4.965-0.81-8.99,0.276l-11.672,3.149L326.306,359.791z"/>
	<path fill="#FFFFFF" d="M362.891,287.261l43.031-11.611c7.172-1.935,13.157-1.644,17.956,0.872
		c4.797,2.516,7.904,6.396,9.319,11.639c1.187,4.397,0.834,8.539-1.057,12.424c-1.261,2.592-3.487,4.969-6.677,7.136
		c5.693-0.156,10.22,0.99,13.585,3.439c3.364,2.45,5.686,6.042,6.964,10.778c1.041,3.857,1.08,7.567,0.118,11.128
		c-0.963,3.563-2.759,6.661-5.387,9.293c-1.627,1.637-4.318,3.234-8.071,4.791c-4.993,2.074-8.336,3.338-10.027,3.794
		l-39.683,10.707L362.891,287.261z M393.955,310.182l9.997-2.697c3.585-0.967,5.914-2.258,6.985-3.872
		c1.07-1.613,1.291-3.587,0.661-5.921c-0.584-2.165-1.743-3.667-3.475-4.506c-1.733-0.839-4.341-0.788-7.826,0.152l-10.149,2.738
		L393.955,310.182z M401.841,339.41l11.721-3.163c3.959-1.068,6.56-2.523,7.805-4.366c1.245-1.841,1.548-3.946,0.909-6.315
		c-0.593-2.198-1.874-3.749-3.841-4.653c-1.967-0.902-4.965-0.81-8.99,0.276l-11.671,3.149L401.841,339.41z"/>
	<path fill="#FFFFFF" d="M434.323,267.987l22.987-6.202l15.13,56.072l35.876-9.68l4.943,18.318l-58.863,15.883L434.323,267.987z"/>
	<path fill="#FFFFFF" d="M500.471,250.139l61.602-16.622l4.286,15.883l-38.565,10.406l3.19,11.823l35.775-9.653l4.094,15.173
		l-35.775,9.653l3.957,14.665l39.683-10.707l4.546,16.847l-62.719,16.923L500.471,250.139z"/>
</g>
<path fill="#00539F" stroke="#FFFFFF" stroke-width="10" stroke-miterlimit="10" d="M121.798,135.239
	c0,0,31.585-1.436,76.808,58.862c0,0,109.829-53.844,205.301-58.865c0,0,2.871-66.038,30.867-91.88c0,0-30.45,1.436-60.09,32.303
	c0,0-16.226-35.892-35.495-40.917c0,0-22.14,10.05-27.883,47.377c0,0-22.971-33.02-44.506-34.456c0,0-15.792,14.357-17.946,50.966
	c0,0-26.56-26.56-48.813-22.253c0,0-12.203,20.817-8.614,51.684C191.428,128.061,136.872,123.036,121.798,135.239z"/>
<path fill="none" d="M149.53,204.477c0,0,99.964-113.318,326.078-101.695"/>
<text transform="matrix(0.8923 -0.4515 0.4515 0.8923 217.7092 154.3641)"><tspan x="0" y="0" fill="#FFFFFF" font-family="'Arial-Black'" font-size="28">A</tspan><tspan x="20.152" y="-0.107" fill="#FFFFFF" font-family="'Arial-Black'" font-size="28" rotate="3.295">M</tspan><tspan x="44.899" y="1.361" fill="#FFFFFF" font-family="'Arial-Black'" font-size="28" rotate="6.32">E</tspan><tspan x="63.431" y="3.363" fill="#FFFFFF" font-family="'Arial-Black'" font-size="28" rotate="8.916">R</tspan><tspan x="83.41" y="6.564" fill="#FFFFFF" font-family="'Arial-Black'" font-size="28" rotate="10.828">I</tspan><tspan x="92.64" y="8.215" fill="#FFFFFF" font-family="'Arial-Black'" font-size="28" rotate="12.689">C</tspan><tspan x="112.371" y="12.626" fill="#FFFFFF" font-family="'Arial-Black'" font-size="28" rotate="15.141">A</tspan><tspan x="131.913" y="17.992" fill="#FFFFFF" font-family="'Arial-Black'" font-size="28" rotate="16.699">’</tspan><tspan x="137.973" y="19.711" fill="#FFFFFF" font-family="'Arial-Black'" font-size="28" rotate="18.131">S</tspan></text>
<path fill="none" d="M162.608,220.073c0,0,102.473-111.055,328.27-94.38"/>
<text transform="matrix(0.903 -0.4296 0.4296 0.903 231.8735 171.4795)"><tspan x="0" y="0" fill="#FFFFFF" font-family="'Arial-Black'" font-size="28">O</tspan><tspan x="21.692" y="-0.018" fill="#FFFFFF" font-family="'Arial-Black'" font-size="28" rotate="3.067">R</tspan><tspan x="41.894" y="1.137" fill="#FFFFFF" font-family="'Arial-Black'" font-size="28" rotate="5.149">I</tspan><tspan x="51.214" y="1.833" fill="#FFFFFF" font-family="'Arial-Black'" font-size="28" rotate="7.27">G</tspan><tspan x="72.81" y="4.675" fill="#FFFFFF" font-family="'Arial-Black'" font-size="28" rotate="9.327">I</tspan><tspan x="82.067" y="6.059" fill="#FFFFFF" font-family="'Arial-Black'" font-size="28" rotate="11.323">N</tspan><tspan x="103.404" y="10.318" fill="#FFFFFF" font-family="'Arial-Black'" font-size="28" rotate="13.917">A</tspan><tspan x="123.021" y="15.18" fill="#FFFFFF" font-family="'Arial-Black'" font-size="28" rotate="16.136">L</tspan></text>
</svg>
